<svg version="1.2" xmlns="http://www.w3.org/2000/svg" viewBox="0 0 270 256" width="270" height="256">
	<style>
		.s0 { fill: #fd6c27 } 
	</style>
	<g>
	</g>
	<g>
		<path class="s0" d="m113.9 50.05q0 0.07 0.05 0.13 0.05 0.05 0.12 0.07 0.07 0.01 0.13-0.02 0.07-0.03 0.1-0.1 5.9-13.62 16.85-25 18.51-19.25 44.96-23.48 4.53-0.73 13.39-1.16 2.01-0.1 12.1 1.45c18.94 2.91 37.13 14.72 49.04 29q11.88 14.24 16.04 31.42c7.08 29.27-1.99 57.37-20.25 80.42q-0.06 0.08-0.07 0.18-0.01 0.1 0.03 0.19 0.04 0.09 0.13 0.14 0.08 0.05 0.18 0.05h21.38q0.16 0 0.3 0.06 0.14 0.06 0.25 0.17 0.11 0.11 0.17 0.25 0.06 0.14 0.06 0.3 0.09 58.93-0.01 98.65c-0.02 7.76-4.96 12.95-12.73 12.95q-51.84 0.03-105.69 0.04-0.15 0-0.29-0.06-0.14-0.06-0.25-0.16-0.1-0.11-0.16-0.25-0.06-0.14-0.06-0.29v-54.77q0-0.17 0.1-0.3 0.09-0.14 0.25-0.2 0.15-0.06 0.32-0.02 0.16 0.04 0.27 0.16l25.7 28.01q0.25 0.27 0.56 0.49 0.3 0.22 0.64 0.37 0.34 0.15 0.71 0.22 0.36 0.08 0.73 0.08 23.86-0.04 53.29 0.05c9.49 0.02 9.88-4.85 9.96-12.75q0.27-26.74 0.09-45.22 0-0.12-0.05-0.23-0.04-0.11-0.13-0.19-0.08-0.09-0.2-0.13-0.11-0.05-0.23-0.05h-18.47q-0.2 0-0.4 0.04-0.2 0.05-0.38 0.13-0.19 0.08-0.35 0.21-0.16 0.12-0.29 0.27l-33.01 37.84q-0.2 0.23-0.47 0.36-0.27 0.13-0.57 0.15-0.31 0.02-0.59-0.09-0.29-0.1-0.51-0.31-2.77-2.58-4.59-4.63c-18.06-20.37-37.85-43.27-54.31-65.98q-8.26-11.42-13.53-24.26-0.06-0.14-0.15-0.25-0.09-0.11-0.21-0.19-0.12-0.09-0.26-0.13-0.14-0.04-0.29-0.04h-111.54q-0.2 0-0.38-0.07-0.18-0.08-0.32-0.22-0.14-0.13-0.21-0.31-0.08-0.18-0.08-0.38-0.15-75.01-0.04-98.37 0.03-7.96 6.4-11.58 2.66-1.51 10.42-1.42 10.31 0.13 95.59 0.03 0.15 0 0.29 0.06 0.14 0.06 0.25 0.16 0.1 0.11 0.16 0.25 0.06 0.14 0.06 0.29zm74.17 120.06c14.62-17.36 21.39-24.75 30.64-37.17 6.88-9.23 12.51-16.55 17.55-26.17 12.74-24.32 4.15-55.51-18.94-70.15-13.63-8.65-29.86-11.22-45.53-6.42q-21.01 6.45-31.73 27.83c-8.69 17.33-6.97 37.8 2.96 54.3q5.59 9.28 12.04 17.71 13.94 18.24 32.31 40.07 0.07 0.08 0.16 0.12 0.09 0.04 0.19 0.04 0.1 0 0.19-0.04 0.09-0.04 0.16-0.12zm-101.5-140.73q0-0.18-0.07-0.36-0.07-0.17-0.2-0.3-0.13-0.13-0.3-0.2-0.18-0.07-0.36-0.07h-56.88q-0.18 0-0.36 0.07-0.17 0.07-0.3 0.2-0.13 0.13-0.2 0.3-0.07 0.18-0.07 0.36v56.14q0 0.18 0.07 0.36 0.07 0.17 0.2 0.3 0.13 0.13 0.3 0.2 0.18 0.07 0.36 0.07h56.88q0.18 0 0.36-0.07 0.17-0.07 0.3-0.2 0.13-0.13 0.2-0.3 0.07-0.18 0.07-0.36z"/>
		<path class="s0" d="m182.62 122.28l-30.98-30.98q-0.13-0.13-0.19-0.29-0.07-0.16-0.07-0.34 0-0.18 0.07-0.34 0.06-0.16 0.19-0.29l15.17-15.17q0.13-0.13 0.29-0.19 0.16-0.07 0.34-0.07 0.18 0 0.34 0.07 0.16 0.06 0.29 0.19l14.76 14.76q0.13 0.13 0.29 0.19 0.16 0.07 0.34 0.07 0.18 0 0.34-0.07 0.16-0.06 0.29-0.19l29.16-29.16q0.13-0.13 0.29-0.19 0.16-0.07 0.34-0.07 0.18 0 0.34 0.07 0.16 0.06 0.29 0.19l14.96 14.96q0.13 0.13 0.19 0.29 0.07 0.16 0.07 0.34 0 0.18-0.07 0.34-0.06 0.16-0.19 0.29l-45.59 45.59q-0.13 0.13-0.29 0.19-0.16 0.07-0.34 0.07-0.18 0-0.34-0.07-0.16-0.06-0.29-0.19z"/>
		<path class="s0" d="m0.69 143.96q0-0.12 0.05-0.23 0.04-0.12 0.13-0.2 0.08-0.09 0.19-0.13 0.11-0.05 0.23-0.05h111.85q0.16 0 0.31 0.06 0.15 0.06 0.26 0.18 0.12 0.11 0.18 0.26 0.06 0.15 0.06 0.31v110.28q0 0.25-0.09 0.47-0.1 0.23-0.27 0.4-0.17 0.18-0.4 0.27-0.22 0.1-0.47 0.1-47.89 0.22-95.97 0-3.76-0.01-7.41-0.62-0.14-0.02-0.27-0.06-0.14-0.03-0.27-0.07-0.13-0.05-0.26-0.1-0.13-0.06-0.25-0.12-7.67-3.89-7.65-12.46 0.09-69.83 0.05-98.29zm85.94 27.47q0-0.17-0.07-0.33-0.06-0.16-0.18-0.29-0.13-0.12-0.29-0.18-0.16-0.07-0.33-0.07h-57.06q-0.17 0-0.33 0.07-0.16 0.06-0.29 0.18-0.12 0.13-0.18 0.29-0.07 0.16-0.07 0.33v57.06q0 0.17 0.07 0.33 0.06 0.16 0.18 0.29 0.13 0.12 0.29 0.18 0.16 0.07 0.33 0.07h57.06q0.17 0 0.33-0.07 0.16-0.06 0.29-0.18 0.12-0.13 0.18-0.29 0.07-0.16 0.07-0.33z"/>
	</g>
</svg>